<svg width="32" height="33" viewBox="0 0 32 33" fill="none" xmlns="http://www.w3.org/2000/svg">
<path d="M6 13.5498C6 9.40714 9.35733 6.0498 13.5 6.0498C17.6427 6.0498 21 9.40714 21 13.5498C21 17.6925 17.6427 21.0498 13.5 21.0498C9.35733 21.0498 6 17.6925 6 13.5498Z" fill="#3E66FB" fill-opacity="0.2"/>
<path d="M6 13.5498C6 9.40714 9.35733 6.0498 13.5 6.0498C17.6427 6.0498 21 9.40714 21 13.5498C21 17.6925 17.6427 21.0498 13.5 21.0498C9.35733 21.0498 6 17.6925 6 13.5498Z" stroke="#3E66FB" stroke-width="2" stroke-linecap="round" stroke-linejoin="round"/>
<path d="M3 26.0498C5.56933 22.9938 9.19467 21.0498 13.5 21.0498C17.8053 21.0498 21.4307 22.9938 24 26.0498" stroke="#3E66FB" stroke-width="2" stroke-linecap="round" stroke-linejoin="round"/>
<path d="M25 8.6416C26.3333 11.7776 26.3333 15.3203 25 18.4563" stroke="#3E66FB" stroke-width="2" stroke-linecap="round" stroke-linejoin="round"/>
<path d="M28.6707 7.0498C30.444 11.2018 30.444 15.8978 28.6707 20.0498" stroke="#3E66FB" stroke-width="2" stroke-linecap="round" stroke-linejoin="round"/>
</svg>
