<svg width="114" height="114" viewBox="0 0 114 114" fill="none" xmlns="http://www.w3.org/2000/svg">
<g filter="url(#filter0_dddd_0_394)">
<rect x="33" y="13.0498" width="48" height="48" rx="8" fill="#F6FBFF"/>
<path d="M45 44.0498C45 45.1538 45.896 46.0498 47 46.0498H49C50.104 46.0498 51 45.1538 51 44.0498V39.0498C51 37.9458 50.104 37.0498 49 37.0498H45V44.0498Z" fill="#3E66FB" fill-opacity="0.2"/>
<path d="M65 37.0498C63.896 37.0498 63 37.9458 63 39.0498V44.0498C63 45.1538 63.896 46.0498 65 46.0498H69V37.0498H65Z" fill="#3E66FB" fill-opacity="0.2"/>
<path d="M69 46.0498V47.0498C69 49.2591 67.2093 51.0498 65 51.0498H58" stroke="#3E66FB" stroke-width="2" stroke-linecap="round" stroke-linejoin="round"/>
<path d="M69 37.0498H65C63.896 37.0498 63 37.9458 63 39.0498V44.0498C63 45.1538 63.896 46.0498 65 46.0498H69V37.0498ZM69 37.0498C69 30.4218 63.628 25.0498 57 25.0498C50.372 25.0498 45 30.4218 45 37.0498M45 37.0498V44.0498C45 45.1538 45.896 46.0498 47 46.0498H49C50.104 46.0498 51 45.1538 51 44.0498V39.0498C51 37.9458 50.104 37.0498 49 37.0498H45Z" stroke="#3E66FB" stroke-width="2" stroke-linecap="round" stroke-linejoin="round"/>
</g>
<defs>
<filter id="filter0_dddd_0_394" x="0.5" y="0.549805" width="113" height="113" filterUnits="userSpaceOnUse" color-interpolation-filters="sRGB">
<feFlood flood-opacity="0" result="BackgroundImageFix"/>
<feColorMatrix in="SourceAlpha" type="matrix" values="0 0 0 0 0 0 0 0 0 0 0 0 0 0 0 0 0 0 127 0" result="hardAlpha"/>
<feMorphology radius="3.5" operator="erode" in="SourceAlpha" result="effect1_dropShadow_0_394"/>
<feOffset dy="20"/>
<feGaussianBlur stdDeviation="18"/>
<feComposite in2="hardAlpha" operator="out"/>
<feColorMatrix type="matrix" values="0 0 0 0 0.0627451 0 0 0 0 0.192157 0 0 0 0 0.301961 0 0 0 0.09 0"/>
<feBlend mode="normal" in2="BackgroundImageFix" result="effect1_dropShadow_0_394"/>
<feColorMatrix in="SourceAlpha" type="matrix" values="0 0 0 0 0 0 0 0 0 0 0 0 0 0 0 0 0 0 127 0" result="hardAlpha"/>
<feMorphology radius="2.625" operator="erode" in="SourceAlpha" result="effect2_dropShadow_0_394"/>
<feOffset dy="6.38265"/>
<feGaussianBlur stdDeviation="5.7444"/>
<feComposite in2="hardAlpha" operator="out"/>
<feColorMatrix type="matrix" values="0 0 0 0 0.0627451 0 0 0 0 0.192157 0 0 0 0 0.301961 0 0 0 0.17 0"/>
<feBlend mode="normal" in2="effect1_dropShadow_0_394" result="effect2_dropShadow_0_394"/>
<feColorMatrix in="SourceAlpha" type="matrix" values="0 0 0 0 0 0 0 0 0 0 0 0 0 0 0 0 0 0 127 0" result="hardAlpha"/>
<feMorphology radius="1.75" operator="erode" in="SourceAlpha" result="effect3_dropShadow_0_394"/>
<feOffset dy="2.41451"/>
<feGaussianBlur stdDeviation="2.17305"/>
<feComposite in2="hardAlpha" operator="out"/>
<feColorMatrix type="matrix" values="0 0 0 0 0.0627451 0 0 0 0 0.192157 0 0 0 0 0.301961 0 0 0 0.2 0"/>
<feBlend mode="normal" in2="effect2_dropShadow_0_394" result="effect3_dropShadow_0_394"/>
<feColorMatrix in="SourceAlpha" type="matrix" values="0 0 0 0 0 0 0 0 0 0 0 0 0 0 0 0 0 0 127 0" result="hardAlpha"/>
<feMorphology radius="0.875" operator="erode" in="SourceAlpha" result="effect4_dropShadow_0_394"/>
<feOffset dy="0.796192"/>
<feGaussianBlur stdDeviation="0.716575"/>
<feComposite in2="hardAlpha" operator="out"/>
<feColorMatrix type="matrix" values="0 0 0 0 0.0627451 0 0 0 0 0.192157 0 0 0 0 0.301961 0 0 0 0.21 0"/>
<feBlend mode="normal" in2="effect3_dropShadow_0_394" result="effect4_dropShadow_0_394"/>
<feBlend mode="normal" in="SourceGraphic" in2="effect4_dropShadow_0_394" result="shape"/>
</filter>
</defs>
</svg>
